<svg xmlns="http://www.w3.org/2000/svg" width="178" height="39" viewBox="0 0 178 39">
    <g fill="#EE2722" fill-rule="nonzero">
        <path d="M43.301 13.833c-4.246 0-7.577 2.819-7.577 6.453 0 3.625 3.331 6.419 7.577 6.419s7.617-2.794 7.617-6.419c0-3.634-3.37-6.453-7.617-6.453m0 17.202c-6.667 0-11.927-4.683-11.927-10.749 0-6.05 5.26-10.799 11.927-10.799 6.697 0 11.933 4.749 11.933 10.8 0 6.065-5.236 10.748-11.933 10.748M85.967 31.035c-2.411 0-4.34-1.978-4.34-4.405v-8.959c0-2.143-1.85-3.838-4.167-3.838-2.262 0-4.091 1.695-4.091 3.838v13.364c-2.397 0-4.35-1.924-4.35-4.33v-9.034c0-2.143-1.84-3.838-4.147-3.838-2.263 0-4.122 1.695-4.122 3.838v8.98c0 2.406-1.93 4.384-4.34 4.384V17.671c0-4.52 3.793-8.184 8.462-8.184 2.53 0 4.783 1.04 6.314 2.72 1.526-1.68 3.793-2.72 6.274-2.72 4.704 0 8.507 3.665 8.507 8.184v13.364zM100.082 30.997c-1.139 0-2.233-.095-3.227-.314-2.252-.626-3.565-2.983-2.988-5.225.1-.283.174-.557.273-.78l.05-.05c1.213 1.337 3.197 2.018 5.892 2.018 3.952 0 7.09-2.789 7.09-6.314 0-3.68-3.138-6.558-7.09-6.558-3.764 0-7.513 2.078-7.513 6.648v14.055c0 2.362-1.993 4.246-4.36 4.246V20.422c0-6.305 4.987-10.983 11.873-10.983 3.013 0 5.847 1.143 8.03 3.132a10.542 10.542 0 0 1 3.38 7.761c0 5.981-5.006 10.665-11.41 10.665M131.02 5.37h-9.297v25.665h-.19c-2.301 0-4.14-1.979-4.14-4.33V5.37h-9.298c-2.347 0-4.231-1.944-4.231-4.3h31.447c0 2.356-1.885 4.3-4.29 4.3M158.533 5.574l-6.155 13.534h11.634L157.797 5.51l.736.064zm9.63 22.751l-2.297-4.952h-15.432l-2.258 5.092c-1.078 2.033-3.937 2.65-6.115 2.65L154.615 3.57c.726-1.57 1.989-2.5 3.446-2.5 1.436 0 2.749.93 3.465 2.5l12.41 27.201c-2.337.224-4.878-.472-5.773-2.446zM26.502 9.17a13.23 13.23 0 0 0-9.58-4.122c-6.723 0-12.202 4.887-12.202 10.918 0 6.016 5.48 10.933 12.201 10.933 3.207 0 6.24-1.228 8.537-3.172 1.606-1.298 3.952-1.223 5.479.084-1.169 1.82-2.75 3.386-4.704 4.62-2.739 1.76-5.956 2.66-9.312 2.66C7.838 31.09.48 24.288.48 15.965.48 7.603 7.838.792 16.921.792c6.469 0 12.345 3.545 14.94 8.969-1.645 1.084-3.962.945-5.36-.592M176.432 27.525a.786.786 0 0 1-.204.104s.134.15.567.681l-.075.05a.448.448 0 0 1-.621-.03c-.482-.586-.517-.631-.517-.631h-.557v-.174c.04-.194.204-.378.423-.378h.283c.184 0 .328-.04.428-.09.07-.024.08-.089.08-.183 0-.06 0-.234-.508-.234h-.756v1.412c0 .239-.199.417-.447.417h-.095v-1.993c0-.214.204-.363.418-.388h.88c.97 0 1.064.552 1.064.786 0 .308-.14.507-.363.65m-.84-1.76c-.99 0-1.815.702-1.815 1.577 0 .87.825 1.576 1.815 1.576.994 0 1.83-.706 1.83-1.576 0-.875-.836-1.576-1.83-1.576m0 3.624c-1.273 0-2.287-.92-2.287-2.048 0-1.124 1.014-2.068 2.287-2.068 1.253 0 2.267.944 2.267 2.068 0 1.128-1.014 2.048-2.267 2.048M136.679 1.08v25.765c0 2.307 2.008 4.191 4.335 4.191V5.296c0-2.306-1.984-4.215-4.335-4.215"/>
    </g>
</svg>
