<svg width="1792" height="1792" viewBox="0 0 1792 1792" fill="none" xmlns="http://www.w3.org/2000/svg">
    <rect width="1792" height="1792"/>
    <path fill-rule="evenodd" clip-rule="evenodd"
          d="M1696.96 806.521C1694.41 783.86 1667.99 766.832 1645.14 766.832C1571.27 766.832 1505.73 723.461 1478.24 656.386C1450.16 587.685 1468.27 507.565 1523.32 457.068C1540.64 441.227 1542.75 414.71 1528.22 396.291C1490.41 348.283 1447.44 304.918 1400.52 267.334C1382.15 252.591 1355.2 254.643 1339.27 272.283C1291.22 325.491 1204.93 345.266 1138.24 317.441C1068.84 288.249 1025.08 217.929 1029.37 142.445C1030.77 118.735 1013.45 98.1201 989.809 95.367C929.601 88.4034 868.866 88.1874 808.479 94.8872C785.111 97.4663 767.782 117.595 768.568 141.005C771.195 215.746 726.906 284.836 658.2 312.979C592.312 339.892 506.619 320.284 458.672 267.55C442.825 250.18 416.308 248.045 397.846 262.434C349.539 300.335 305.604 343.736 267.451 391.348C252.57 409.858 254.759 436.687 272.261 452.611C328.36 503.414 346.474 584.23 317.33 653.723C289.505 719.976 220.709 762.676 141.95 762.676C116.392 761.854 98.1885 779.008 95.3934 802.244C88.3038 862.8 88.2199 924.501 95.0455 985.548C97.5767 1008.3 124.801 1025.18 147.9 1025.18C218.088 1023.39 285.475 1066.84 313.743 1135.63C341.921 1204.34 323.808 1284.41 268.674 1334.95C251.43 1350.79 249.241 1377.26 263.774 1395.68C301.225 1443.38 344.201 1486.79 391.285 1524.69C409.752 1539.57 436.623 1537.47 452.632 1519.83C500.855 1466.49 587.148 1446.75 653.569 1474.63C723.14 1503.73 766.901 1574.04 762.618 1649.57C761.221 1673.29 778.633 1693.94 802.175 1696.65C832.974 1700.25 863.96 1702.04 895.029 1702.04C924.521 1702.04 954.019 1700.42 983.511 1697.14C1006.88 1694.56 1024.2 1674.43 1023.42 1650.98C1020.71 1576.28 1065.08 1507.19 1133.69 1479.1C1200.03 1452 1285.36 1471.83 1333.31 1524.51C1349.25 1541.85 1375.58 1543.94 1394.14 1529.6C1442.36 1491.79 1486.21 1448.42 1524.54 1400.68C1539.41 1382.21 1537.31 1355.34 1519.72 1339.42C1463.62 1288.62 1445.42 1207.79 1474.56 1138.35C1501.96 1072.97 1568.2 1029.08 1639.45 1029.08L1649.42 1029.34C1672.53 1031.22 1693.8 1013.41 1696.6 989.824C1703.7 929.215 1703.78 867.568 1696.96 806.521ZM897.278 1166.58C749.021 1166.58 628.426 1045.98 628.426 897.726C628.426 749.474 749.021 628.873 897.278 628.873C1045.53 628.873 1166.12 749.474 1166.12 897.726C1166.12 1045.98 1045.53 1166.58 897.278 1166.58Z"
          fill="#ffffff"/>
</svg>
