<?xml version="1.0" encoding="UTF-8" standalone="no"?>
<svg width="220px" height="220px" viewBox="0 0 220 220" version="1.1" xmlns="http://www.w3.org/2000/svg">
    <!-- Generator: sketchtool 50 (54983) - http://www.bohemiancoding.com/sketch -->
    <title>A18D59F3-CE5B-4F5F-A2B4-5DF531233BB7</title>
    <desc>Created with sketchtool.</desc>
    <defs/>
    <g id="Symbols" stroke="none" stroke-width="1" fill="none" fill-rule="evenodd">
        <g id="default_avatar">
            <g id="Group">
                <path d="M22,0 L198,0 C210.150264,-2.23196738e-15 220,9.8497355 220,22 L220,198 C220,210.150264 210.150264,220 198,220 L22,220 C9.8497355,220 1.48797825e-15,210.150264 0,198 L0,22 C-1.48797825e-15,9.8497355 9.8497355,2.23196738e-15 22,0 Z" id="Rectangle-6"/>
                <g id="man-user" transform="translate(42.000000, 22.000000)" fill-rule="nonzero">
                    <path d="M67.3828571,86.0755657 C86.95104,86.0755657 102.81568,66.8070857 102.81568,43.0380343 C102.81568,19.26848 97.6070857,0 67.3828571,0 C37.1586286,0 31.9490286,19.26848 31.9490286,43.0380343 C31.9490286,66.8070857 47.8136686,86.0755657 67.3828571,86.0755657 Z" id="Shape" fill="#A5A5A5"/>
                    <path d="M0.457097143,151.788937 C0.451062857,150.339703 0.445028571,151.380617 0.457097143,151.788937 Z" id="Shape" fill="#000000"/>
                    <path d="M134.3056,152.920869 C134.324709,152.524114 134.312137,150.168229 134.3056,152.920869 Z" id="Shape" fill="#000000"/>
                    <path d="M134.230171,150.051063 C133.573943,108.6448 128.166217,96.8462629 86.7845943,89.3778286 C86.7845943,89.3778286 80.9594971,96.8005029 67.3823543,96.8005029 C53.8052114,96.8005029 47.9791086,89.3778286 47.9791086,89.3778286 C7.04905143,96.7648 1.31245714,108.388343 0.558171429,148.70592 C0.49632,151.998126 0.467657143,152.171109 0.456594286,151.788937 C0.459108571,152.505006 0.462125714,153.829531 0.462125714,156.139154 C0.462125714,156.139154 10.3141029,176 67.3823543,176 C124.4496,176 134.302583,156.139154 134.302583,156.139154 C134.302583,154.655223 134.303589,153.62336 134.305097,152.921371 C134.294034,153.157714 134.271909,152.699611 134.230171,150.051063 Z" id="Shape" fill="#A5A5A5"/>
                </g>
            </g>
        </g>
    </g>
</svg>
