<svg xmlns="http://www.w3.org/2000/svg" xmlns:xlink="http://www.w3.org/1999/xlink" width="89" height="60" viewBox="0 0 89 60">
    <defs>
        <path id="a" d="M52.361 10H69c11.046 0 20 8.954 20 20s-8.954 20-20 20H52.361C46.868 56.137 38.885 60 30 60 13.431 60 0 46.569 0 30 0 13.431 13.431 0 30 0c8.885 0 16.868 3.863 22.361 10z"/>
    </defs>
    <g fill="none" fill-rule="evenodd">
        <use fill="#FFF" xlink:href="#a"/>
        <path stroke="#E8F2FE" d="M69 10.5H52.138l-.15-.167A29.42 29.42 0 0 0 30 .5C13.708.5.5 13.708.5 30S13.708 59.5 30 59.5a29.42 29.42 0 0 0 21.988-9.833l.15-.167H69c10.77 0 19.5-8.73 19.5-19.5S79.77 10.5 69 10.5z"/>
    </g>
</svg>
